<svg id="Layer_1" enable-background="new 0 0 512 512" height="512" viewBox="0 0 512 512" width="512" xmlns="http://www.w3.org/2000/svg"><g><path d="m11.333 190.667 36.974 308.12c.518 4.318 2.842 8.017 6.156 10.396l191.11-318.516z"/><path d="m311.774 80.333h-296.774c-4.29 0-8.374 1.837-11.221 5.045-2.847 3.209-4.184 7.483-3.672 11.742l7.626 63.547h255.841z"/><path d="m368.467 80.333h-21.707l-48.201 80.334h77.175l7.626-63.547c.511-4.259-.826-8.533-3.673-11.742-2.846-3.208-6.93-5.045-11.22-5.045z"/><path d="m87.759 512h232.508c7.593 0 13.988-5.674 14.894-13.213l36.974-308.12h-91.575z"/><path d="m497 0h-128.533c-5.269 0-10.151 2.765-12.862 7.282l-25.795 42.991 35.055-.114 12.095-20.159h120.04c8.284 0 15-6.716 15-15s-6.716-15-15-15z"/></g></svg>